<svg xmlns="http://www.w3.org/2000/svg" width="483.22" height="365.45" viewBox="0 0 483.22 365.45"><rect x="27.48" y="0.61" width="227.52" height="169.13" fill="#ebebeb"/><rect x="255.39" y="169.74" width="227.52" height="169.13" fill="#ebebeb"/><rect x="27.79" y="170.04" width="227.52" height="169.13" fill="#f5f5f5"/><rect x="255.69" y="0.92" width="227.52" height="169.13" fill="#f5f5f5"/><path d="M483.14,339.48H26.87V0H483.14Zm-455-1.23H481.92V1.23H28.09Z" fill="#6b6d70"/><rect x="254.39" y="0.61" width="1.23" height="338.25" fill="#6b6d70"/><rect x="27.48" y="169.13" width="455.05" height="1.23" fill="#6b6d70"/><circle cx="403.21" cy="62.47" r="5.95" fill="#00a09d"/><circle cx="362.65" cy="137.09" r="5.08" fill="#b3b3b3"/><circle cx="302.23" cy="157.78" r="5.08" fill="#b3b3b3"/><circle cx="188.82" cy="149.22" r="5.08" fill="#b3b3b3"/><circle cx="216.11" cy="215.62" r="5.08" fill="#b3b3b3"/><circle cx="306.67" cy="217.83" r="5.08" fill="#b3b3b3"/><circle cx="387.98" cy="293.53" r="5.08" fill="#b3b3b3"/><circle cx="443.9" cy="311.83" r="5.08" fill="#b3b3b3"/><circle cx="453.76" cy="274.89" r="5.08" fill="#b3b3b3"/><circle cx="318.21" cy="273.81" r="5.08" fill="#b3b3b3"/><circle cx="367.29" cy="208.74" r="5.08" fill="#b3b3b3"/><circle cx="155.85" cy="111.93" r="5.08" fill="#b3b3b3"/><circle cx="106.11" cy="54.57" r="5.08" fill="#b3b3b3"/><path d="M355.7,124.64v1.21h-6.05V124.7l4.24-4.92h-4.15v-1.21h5.83v1.15l-4.25,4.92Z"/><path d="M361.39,121a3.38,3.38,0,0,1,0,4.22,3.23,3.23,0,0,1-4.16,0,3.38,3.38,0,0,1,0-4.22,3.23,3.23,0,0,1,4.16,0Zm-3.06.8a2.77,2.77,0,0,0,0,2.62,1.33,1.33,0,0,0,2,0,2.77,2.77,0,0,0,0-2.62,1.33,1.33,0,0,0-2,0Z"/><path d="M368.16,120.74a2,2,0,0,1,.55,1.49v3.62h-1.52v-3.18c0-.84-.32-1.25-1-1.25a1.22,1.22,0,0,0-.9.37,1.6,1.6,0,0,0-.37,1.15v2.91h-1.51v-7.93h1.51v3.35a1.79,1.79,0,0,1,.72-.79,2.13,2.13,0,0,1,1.06-.26A2,2,0,0,1,368.16,120.74Z"/><path d="M374.88,121a3.38,3.38,0,0,1,0,4.22,3.23,3.23,0,0,1-4.16,0,3.34,3.34,0,0,1,0-4.22,3.23,3.23,0,0,1,4.16,0Zm-3.06.8a2.69,2.69,0,0,0,0,2.62,1.32,1.32,0,0,0,1.95,0,2.69,2.69,0,0,0,0-2.62,1.32,1.32,0,0,0-1.95,0Z"/><path d="M278.86,139.49a3.29,3.29,0,0,1,1.28,1.06l-1.05,1a2,2,0,0,0-.76-.89,2.18,2.18,0,0,0-1.2-.29,1.83,1.83,0,0,0-1,.24.78.78,0,0,0-.36.66.67.67,0,0,0,.37.6,4.36,4.36,0,0,0,1.31.38,7.24,7.24,0,0,1,1.58.46,2.08,2.08,0,0,1,.85.69,2,2,0,0,1-.11,2.2,2.33,2.33,0,0,1-1.06.75,4.16,4.16,0,0,1-1.55.27,4.84,4.84,0,0,1-2-.34,2.87,2.87,0,0,1-1.24-1l.91-1.08a2.3,2.3,0,0,0,.93.93,2.9,2.9,0,0,0,1.32.26,2.06,2.06,0,0,0,1.07-.22.68.68,0,0,0,.37-.63.55.55,0,0,0-.35-.49,4.24,4.24,0,0,0-1.24-.38,7.45,7.45,0,0,1-1.63-.49,2.12,2.12,0,0,1-.89-.71,1.82,1.82,0,0,1-.28-1,2,2,0,0,1,.36-1.17,2.26,2.26,0,0,1,1-.82,3.89,3.89,0,0,1,1.59-.3A4,4,0,0,1,278.86,139.49Z"/><path d="M286.75,145.58l-.11.91a1.53,1.53,0,0,1-.72.16c-.71,0-1.13-.28-1.27-.83a1.51,1.51,0,0,1-.75.62,3.14,3.14,0,0,1-1.2.21,1.91,1.91,0,0,1-1.26-.37,1.26,1.26,0,0,1-.45-1c0-.9.72-1.48,2.15-1.75l1.32-.25V143a1,1,0,0,0-.24-.7.9.9,0,0,0-.69-.26,1.4,1.4,0,0,0-.83.22,1.14,1.14,0,0,0-.44.71l-1.2-.5a1.8,1.8,0,0,1,.79-1.13,3.44,3.44,0,0,1,3.45.11,1.79,1.79,0,0,1,.66,1.51v2.26a.45.45,0,0,0,.1.32.41.41,0,0,0,.31.1A1.34,1.34,0,0,0,286.75,145.58Zm-2.69-.19a.73.73,0,0,0,.4-.65v-.57l-1.18.26a1.35,1.35,0,0,0-.55.24.51.51,0,0,0-.18.41.48.48,0,0,0,.16.4.67.67,0,0,0,.46.14A1.79,1.79,0,0,0,284.06,145.39Z"/><path d="M289.15,144.78a1,1,0,0,0,.12.56.5.5,0,0,0,.42.15,1.55,1.55,0,0,0,.33,0l.32-.09-.13,1a1.53,1.53,0,0,1-.46.17,2.76,2.76,0,0,1-.57.06,1.56,1.56,0,0,1-1.17-.39,1.76,1.76,0,0,1-.37-1.25v-6.4h1.51Z"/><path d="M296.29,144.35h-3.91a1.29,1.29,0,0,0,1.38,1.17,1.61,1.61,0,0,0,.78-.17.94.94,0,0,0,.43-.51l1.24.45a2,2,0,0,1-.89,1,3.16,3.16,0,0,1-1.56.35,2.62,2.62,0,0,1-2.87-2.87,2.94,2.94,0,0,1,.73-2.11,2.74,2.74,0,0,1,2.05-.76,2.56,2.56,0,0,1,2,.74,3,3,0,0,1,.69,2.11A3.73,3.73,0,0,1,296.29,144.35Zm-3.5-2a1.59,1.59,0,0,0-.42,1h2.57a1.61,1.61,0,0,0-.42-1,1.2,1.2,0,0,0-.86-.32A1.14,1.14,0,0,0,292.79,142.35Z"/><path d="M297.18,145.59l.88-.9a1.33,1.33,0,0,0,.64.66,2.34,2.34,0,0,0,1,.2,1.7,1.7,0,0,0,.75-.14.4.4,0,0,0,.26-.36c0-.13-.08-.23-.25-.32a3.27,3.27,0,0,0-.85-.25,4.33,4.33,0,0,1-1.78-.67,1.38,1.38,0,0,1-.52-1.12,1.49,1.49,0,0,1,.29-.87,2.07,2.07,0,0,1,.85-.66,3.39,3.39,0,0,1,1.35-.25,3.42,3.42,0,0,1,1.5.29,2.28,2.28,0,0,1,.95.88l-.93.8a1.66,1.66,0,0,0-.6-.65,1.76,1.76,0,0,0-.9-.21,1.48,1.48,0,0,0-.72.15.45.45,0,0,0-.28.38.44.44,0,0,0,.27.38,3.17,3.17,0,0,0,.94.29,4.19,4.19,0,0,1,1.7.63,1.29,1.29,0,0,1,.5,1.09,1.47,1.47,0,0,1-.65,1.24,3.19,3.19,0,0,1-1.86.47A2.86,2.86,0,0,1,297.18,145.59Z"/><path d="M305.3,141H307v1.13h-1.68v4.39h-1.51v-4.39h-1V141h1v-.66a1.73,1.73,0,0,1,.56-1.38,2.7,2.7,0,0,1,2.19-.4,1.26,1.26,0,0,1,.48.21l-.21,1a1.14,1.14,0,0,0-.63-.17c-.63,0-.94.29-.94.85Z"/><path d="M312.46,141.67a3.38,3.38,0,0,1,0,4.22,3.23,3.23,0,0,1-4.16,0,3.38,3.38,0,0,1,0-4.22,3.23,3.23,0,0,1,4.16,0Zm-3.06.8a2.77,2.77,0,0,0,0,2.62,1.33,1.33,0,0,0,2,0,2.77,2.77,0,0,0,0-2.62,1.33,1.33,0,0,0-2,0Z"/><path d="M318.22,141l-.19,1.32a1.26,1.26,0,0,0-.69-.17,1.27,1.27,0,0,0-.93.39,1.51,1.51,0,0,0-.39,1.1v2.86H314.5V141h1.32l.1,1.09a1.69,1.69,0,0,1,1.71-1.2A1.1,1.1,0,0,1,318.22,141Z"/><path d="M323.27,141.36a2.15,2.15,0,0,1,.83,1.17l-1.41.51c-.13-.67-.49-1-1.07-1a1.18,1.18,0,0,0-1,.45,2.59,2.59,0,0,0,0,2.6,1.21,1.21,0,0,0,1,.43,1,1,0,0,0,1.14-1l1.37.44a2,2,0,0,1-.82,1.22,3,3,0,0,1-3.79-4.53,2.76,2.76,0,0,1,2.06-.76A2.8,2.8,0,0,1,323.27,141.36Z"/><path d="M330.43,144.35h-3.91a1.29,1.29,0,0,0,1.38,1.17,1.68,1.68,0,0,0,.79-.17,1,1,0,0,0,.43-.51l1.23.45a1.91,1.91,0,0,1-.89,1,3.16,3.16,0,0,1-1.56.35,2.81,2.81,0,0,1-2.11-.76,2.85,2.85,0,0,1-.75-2.11,2.93,2.93,0,0,1,.72-2.11,2.74,2.74,0,0,1,2.05-.76,2.56,2.56,0,0,1,2,.74,3,3,0,0,1,.69,2.11A3.73,3.73,0,0,1,330.43,144.35Zm-3.5-2a1.59,1.59,0,0,0-.42,1h2.57a1.61,1.61,0,0,0-.42-1,1.19,1.19,0,0,0-.86-.32A1.15,1.15,0,0,0,326.93,142.35Z"/><path d="M173,138h-1.74l-2.55-4.28-.63-1.23h0l0,1.29V138h-1.37V130.7h1.74L171,135l.63,1.23h0l0-1.29V130.7H173Z"/><path d="M179.77,135.79h-3.9a1.28,1.28,0,0,0,1.37,1.17,1.68,1.68,0,0,0,.79-.17,1,1,0,0,0,.43-.51l1.23.45a1.91,1.91,0,0,1-.89,1,3.16,3.16,0,0,1-1.56.35,3,3,0,0,1-2.13-5,2.67,2.67,0,0,1,2-.76,2.54,2.54,0,0,1,2,.74,3,3,0,0,1,.69,2.11A3.81,3.81,0,0,1,179.77,135.79Zm-3.5-2a1.56,1.56,0,0,0-.42.94h2.57a1.55,1.55,0,0,0-.41-.94,1.34,1.34,0,0,0-1.74,0Z"/><path d="M184.77,137.63a2.21,2.21,0,0,1-.67.34,3,3,0,0,1-.85.12c-1.22,0-1.84-.56-1.84-1.67v-2.83h-1v-1.13h1v-1.27l1.51-.42v1.69h1.79v1.13h-1.79v2.59a.67.67,0,0,0,.76.76,1.24,1.24,0,0,0,.85-.31Z"/><path d="M185.29,137l.89-.91a1.29,1.29,0,0,0,.63.67,2.41,2.41,0,0,0,1,.19,1.71,1.71,0,0,0,.75-.13.41.41,0,0,0,.27-.36c0-.13-.09-.23-.25-.32a3.3,3.3,0,0,0-.86-.26,4.41,4.41,0,0,1-1.78-.66,1.37,1.37,0,0,1-.51-1.12,1.42,1.42,0,0,1,.29-.87,1.93,1.93,0,0,1,.85-.66,3.21,3.21,0,0,1,1.34-.25,3.52,3.52,0,0,1,1.5.28,2.47,2.47,0,0,1,1,.89l-.94.79a1.65,1.65,0,0,0-.6-.65,1.76,1.76,0,0,0-.9-.21,1.48,1.48,0,0,0-.72.16.44.44,0,0,0-.27.37.45.45,0,0,0,.26.39,3.5,3.5,0,0,0,.94.29,4.31,4.31,0,0,1,1.71.63,1.31,1.31,0,0,1,.5,1.09,1.45,1.45,0,0,1-.66,1.24,3.19,3.19,0,0,1-1.86.47A2.9,2.9,0,0,1,185.29,137Z"/><path d="M196.81,132.46V138h-1.35l-.05-.95a2,2,0,0,1-1.93,1.06,2,2,0,0,1-1.42-.48,1.94,1.94,0,0,1-.52-1.5v-3.65h1.51v3.27a1.35,1.35,0,0,0,.24.9.91.91,0,0,0,.72.27,1.27,1.27,0,0,0,.93-.37,1.54,1.54,0,0,0,.36-1.11v-3Z"/><path d="M198.22,130.86c0-.54.31-.81.94-.81s.93.27.93.81-.31.81-.93.81S198.22,131.4,198.22,130.86Zm1.69,7.12H198.4v-5.52h1.51Z"/><path d="M205.29,137.63a2.21,2.21,0,0,1-.67.34,2.94,2.94,0,0,1-.84.12c-1.23,0-1.84-.56-1.84-1.67v-2.83h-1v-1.13h1v-1.27l1.51-.42v1.69h1.78v1.13h-1.78v2.59a.67.67,0,0,0,.76.76,1.27,1.27,0,0,0,.85-.31Z"/><path d="M211.34,135.79h-3.9a1.28,1.28,0,0,0,1.38,1.17,1.67,1.67,0,0,0,.78-.17.94.94,0,0,0,.43-.51l1.24.45a2,2,0,0,1-.89,1,3.21,3.21,0,0,1-1.56.35,3,3,0,0,1-2.14-5,2.69,2.69,0,0,1,2-.76,2.58,2.58,0,0,1,2,.74,3,3,0,0,1,.69,2.11A3.81,3.81,0,0,1,211.34,135.79Zm-3.5-2a1.55,1.55,0,0,0-.41.94H210a1.61,1.61,0,0,0-.42-.94,1.16,1.16,0,0,0-.86-.32A1.18,1.18,0,0,0,207.84,133.79Z"/><path d="M128.15,100.69h-1.37V96.9l.07-2.13h0l-2,5.92h-1.25l-2-5.92h0l.08,2.13v3.79h-1.38V93.41h2.21l1.31,4,.46,1.64h0l.48-1.63,1.3-4h2.14Z"/><path d="M134.45,93.64a3.35,3.35,0,0,1,1.27,1.06l-1,1a2,2,0,0,0-.76-.89,2.24,2.24,0,0,0-1.21-.29,1.75,1.75,0,0,0-1,.25.76.76,0,0,0-.35.65.68.68,0,0,0,.36.6,4.36,4.36,0,0,0,1.31.38,6.68,6.68,0,0,1,1.58.47,1.93,1.93,0,0,1,.85.69,2,2,0,0,1-.11,2.19,2.36,2.36,0,0,1-1.06.76,4.32,4.32,0,0,1-1.54.26,4.81,4.81,0,0,1-2-.34,2.81,2.81,0,0,1-1.24-1l.9-1.08a2.26,2.26,0,0,0,.94.93,2.86,2.86,0,0,0,1.31.26,2.12,2.12,0,0,0,1.08-.22.68.68,0,0,0,.36-.63.57.57,0,0,0-.34-.49,4.71,4.71,0,0,0-1.24-.38,7.56,7.56,0,0,1-1.64-.49,2.11,2.11,0,0,1-.89-.71,1.87,1.87,0,0,1-.27-1,2,2,0,0,1,.35-1.17,2.31,2.31,0,0,1,1-.82,3.89,3.89,0,0,1,1.59-.3A4.08,4.08,0,0,1,134.45,93.64Z"/><path d="M146,94.36a4.32,4.32,0,0,1,0,5.38,3.56,3.56,0,0,1-2.65,1h-2.81V93.41h2.81A3.56,3.56,0,0,1,146,94.36Zm-1.16,4.49a3.38,3.38,0,0,0,0-3.6,1.91,1.91,0,0,0-1.56-.63H142v4.86h1.22A1.91,1.91,0,0,0,144.81,98.85Z"/><path d="M151.31,101a3.66,3.66,0,0,1-.95,1.58,2.12,2.12,0,0,1-1.42.45,2.06,2.06,0,0,1-1.4-.43l.37-1.07a1,1,0,0,0,.39.27,1.69,1.69,0,0,0,.54.07,1,1,0,0,0,.55-.14,1.06,1.06,0,0,0,.35-.52l.2-.47-.61-1.44-1.68-4.15h1.67l1,3.3.3,1.11.33-1.17,1-3.24h1.53Z"/><path d="M159.12,95.58a2,2,0,0,1,.55,1.49v3.62h-1.51V97.51c0-.83-.33-1.25-1-1.25a1.19,1.19,0,0,0-.89.37,1.56,1.56,0,0,0-.37,1.15v2.91H154.4V95.18h1.35l.05,1a1.84,1.84,0,0,1,.76-.82,2.26,2.26,0,0,1,1.12-.27A2,2,0,0,1,159.12,95.58Z"/><path d="M166.64,99.73l-.11.92a1.66,1.66,0,0,1-.72.15c-.71,0-1.13-.28-1.27-.83a1.51,1.51,0,0,1-.75.62,3.14,3.14,0,0,1-1.2.21,2,2,0,0,1-1.26-.36,1.29,1.29,0,0,1-.45-1c0-.9.72-1.48,2.15-1.74l1.32-.26v-.26a1,1,0,0,0-.24-.7.9.9,0,0,0-.69-.26,1.4,1.4,0,0,0-.83.22,1.16,1.16,0,0,0-.44.72L161,96.6a1.83,1.83,0,0,1,.79-1.13,2.89,2.89,0,0,1,1.61-.4,2.94,2.94,0,0,1,1.84.51,1.8,1.8,0,0,1,.66,1.51v2.27a.49.49,0,0,0,.1.32.46.46,0,0,0,.31.09A1.34,1.34,0,0,0,166.64,99.73ZM164,99.54a.73.73,0,0,0,.4-.65v-.57l-1.18.26a1.35,1.35,0,0,0-.55.24.56.56,0,0,0,0,.82.7.7,0,0,0,.46.13A1.69,1.69,0,0,0,164,99.54Z"/><path d="M175.86,95.58a2,2,0,0,1,.56,1.49v3.62h-1.51V97.37a1.19,1.19,0,0,0-.26-.84.9.9,0,0,0-.69-.27,1.12,1.12,0,0,0-.87.38,1.57,1.57,0,0,0-.34,1.08v3h-1.52V97.37a1.19,1.19,0,0,0-.25-.84.91.91,0,0,0-.7-.27,1.11,1.11,0,0,0-.86.38,1.58,1.58,0,0,0-.36,1.13v2.92h-1.51V95.18h1.36l0,1a2,2,0,0,1,.76-.82,2.15,2.15,0,0,1,1.07-.27,2.12,2.12,0,0,1,1.1.28,1.69,1.69,0,0,1,.7.83,1.88,1.88,0,0,1,.77-.83,2.22,2.22,0,0,1,1.1-.28A2,2,0,0,1,175.86,95.58Z"/><path d="M177.8,93.58c0-.55.31-.82.93-.82s.94.27.94.82-.31.8-.94.8S177.8,94.11,177.8,93.58Zm1.68,7.11H178V95.18h1.51Z"/><path d="M185.31,95.51a2.13,2.13,0,0,1,.82,1.18l-1.41.5c-.13-.67-.49-1-1.07-1a1.2,1.2,0,0,0-1,.45,2.08,2.08,0,0,0-.34,1.3,2,2,0,0,0,.35,1.3,1.19,1.19,0,0,0,1,.44,1.07,1.07,0,0,0,1.15-1l1.37.44a2,2,0,0,1-.83,1.22,2.84,2.84,0,0,1-1.67.45,2.81,2.81,0,0,1-2.11-.76,3.36,3.36,0,0,1,0-4.22,3.35,3.35,0,0,1,3.77-.31Z"/><path d="M186.94,99.74l.88-.9a1.31,1.31,0,0,0,.63.66,2.41,2.41,0,0,0,1,.2,1.64,1.64,0,0,0,.75-.14.39.39,0,0,0,.27-.36c0-.12-.08-.23-.25-.32a3.27,3.27,0,0,0-.85-.25,4.2,4.2,0,0,1-1.78-.67,1.35,1.35,0,0,1-.52-1.12,1.49,1.49,0,0,1,.29-.87,2,2,0,0,1,.85-.66,4,4,0,0,1,2.84,0,2.25,2.25,0,0,1,1,.88l-.93.8a1.67,1.67,0,0,0-.61-.65,1.7,1.7,0,0,0-.89-.21,1.5,1.5,0,0,0-.73.15.45.45,0,0,0-.27.38.44.44,0,0,0,.27.38,3.07,3.07,0,0,0,.94.29,4.25,4.25,0,0,1,1.7.63,1.33,1.33,0,0,1,.5,1.09,1.46,1.46,0,0,1-.65,1.24,3.19,3.19,0,0,1-1.86.47A2.86,2.86,0,0,1,186.94,99.74Z"/><path d="M100.76,36.27A3.48,3.48,0,0,1,102,37.34l-1.05,1a2.07,2.07,0,0,0-.76-.88,2.23,2.23,0,0,0-1.2-.3,1.78,1.78,0,0,0-1,.25.78.78,0,0,0-.36.66.66.66,0,0,0,.36.59,4,4,0,0,0,1.31.39,6.58,6.58,0,0,1,1.58.46,2.08,2.08,0,0,1,.85.69,1.86,1.86,0,0,1,.27,1,1.83,1.83,0,0,1-.38,1.17,2.37,2.37,0,0,1-1,.75,4.2,4.2,0,0,1-1.55.27,5,5,0,0,1-2-.34,2.81,2.81,0,0,1-1.24-1l.9-1.08a2.32,2.32,0,0,0,.94.93,3,3,0,0,0,1.31.26,2.12,2.12,0,0,0,1.08-.22.71.71,0,0,0,.37-.63.59.59,0,0,0-.35-.5,4.79,4.79,0,0,0-1.24-.37A7.5,7.5,0,0,1,97.2,40a2.09,2.09,0,0,1-.89-.7,1.89,1.89,0,0,1-.27-1,2,2,0,0,1,.35-1.17,2.33,2.33,0,0,1,1-.83A4.07,4.07,0,0,1,99,35.94,4.24,4.24,0,0,1,100.76,36.27Z"/><path d="M107.52,41.55h-2.8l-.6,1.78h-1.55l2.65-7.28H107l2.66,7.28h-1.58Zm-.38-1.12-.68-2.06-.33-1.1h0l-.31,1.08-.71,2.08Z"/><path d="M115.81,36.66a2.17,2.17,0,0,1,.71,1.73,2.09,2.09,0,0,1-.71,1.68,2.9,2.9,0,0,1-2,.61H112.3v2.65h-1.52V36.05h3.06A2.9,2.9,0,0,1,115.81,36.66Zm-1.17,2.56a1.06,1.06,0,0,0,.33-.85,1,1,0,0,0-.33-.83,1.58,1.58,0,0,0-1-.28h-1.3V39.5h1.3A1.58,1.58,0,0,0,114.64,39.22Z"/><path d="M201.53,204.37h-1.37v-3.79l.06-2.13h0l-2,5.92h-1.24l-2-5.92h0l.08,2.13v3.79h-1.38V197.1h2.2l1.32,4,.46,1.64h0l.47-1.63,1.31-4h2.14Z"/><path d="M208.64,203.41l-.11.92a1.66,1.66,0,0,1-.72.15c-.7,0-1.13-.27-1.27-.82a1.44,1.44,0,0,1-.75.61,3.1,3.1,0,0,1-1.2.21,2,2,0,0,1-1.26-.36,1.27,1.27,0,0,1-.45-1.05c0-.89.72-1.48,2.15-1.74l1.33-.25v-.27a1,1,0,0,0-.25-.7.94.94,0,0,0-.69-.26,1.48,1.48,0,0,0-.83.22,1.19,1.19,0,0,0-.44.72l-1.2-.51a1.82,1.82,0,0,1,.79-1.12,2.89,2.89,0,0,1,1.61-.41,2.94,2.94,0,0,1,1.84.51,1.79,1.79,0,0,1,.67,1.52V203a.42.42,0,0,0,.1.32.38.38,0,0,0,.3.1A1.3,1.3,0,0,0,208.64,203.41Zm-2.69-.19a.72.72,0,0,0,.41-.64V202l-1.18.27a1.57,1.57,0,0,0-.56.23.52.52,0,0,0-.18.42.49.49,0,0,0,.16.4.73.73,0,0,0,.47.14A1.66,1.66,0,0,0,206,203.22Z"/><path d="M214.33,203.73a1.39,1.39,0,0,1,.5,1.14,1.55,1.55,0,0,1-.82,1.38,4.1,4.1,0,0,1-2.15.5,4.48,4.48,0,0,1-2.05-.37,1.1,1.1,0,0,1-.66-1,.91.91,0,0,1,.25-.65,1.42,1.42,0,0,1,.75-.4,1.49,1.49,0,0,1-.6-.43,1.14,1.14,0,0,1,0-1.36,1.48,1.48,0,0,1,.64-.43,1.73,1.73,0,0,1-.64-.62,1.77,1.77,0,0,1-.22-.88,1.63,1.63,0,0,1,.68-1.37,3.08,3.08,0,0,1,1.85-.5,4.32,4.32,0,0,1,1.11.14,1.89,1.89,0,0,1,.56-1,1.5,1.5,0,0,1,1.12-.32l.2,1.08h-.23a1.49,1.49,0,0,0-.68.14.84.84,0,0,0-.38.39,1.65,1.65,0,0,1,.62.61,1.74,1.74,0,0,1,.22.86,1.63,1.63,0,0,1-.68,1.37,3.09,3.09,0,0,1-1.86.5,4.37,4.37,0,0,1-1-.1.49.49,0,0,0-.43.5.38.38,0,0,0,.16.33.8.8,0,0,0,.47.12h1.86A2.17,2.17,0,0,1,214.33,203.73Zm-1.16,1.79c.28-.13.42-.3.42-.5a.36.36,0,0,0-.19-.34,1.27,1.27,0,0,0-.64-.12h-1.5c-.61,0-.91.17-.91.5s.13.36.41.48a3.41,3.41,0,0,0,1.22.17A3.11,3.11,0,0,0,213.17,205.52Zm-2-5.57a.84.84,0,0,0-.28.66.87.87,0,0,0,.28.68,1.18,1.18,0,0,0,1.45,0,.87.87,0,0,0,.28-.68.84.84,0,0,0-.28-.66,1.18,1.18,0,0,0-1.45,0Z"/><path d="M220.87,202.19H217a1.29,1.29,0,0,0,1.38,1.17,1.57,1.57,0,0,0,.79-.18.92.92,0,0,0,.43-.5l1.23.45a2,2,0,0,1-.89,1,3.16,3.16,0,0,1-1.56.34,2.61,2.61,0,0,1-2.86-2.86,2.92,2.92,0,0,1,.72-2.11,2.7,2.7,0,0,1,2.05-.76,2.56,2.56,0,0,1,2,.74,3,3,0,0,1,.69,2.1A3.86,3.86,0,0,1,220.87,202.19Zm-3.5-2a1.61,1.61,0,0,0-.42.95h2.57a1.61,1.61,0,0,0-.42-.94,1.15,1.15,0,0,0-.86-.33A1.19,1.19,0,0,0,217.37,200.18Z"/><path d="M226.91,199.27a2,2,0,0,1,.54,1.49v3.61h-1.51V201.2c0-.84-.33-1.26-1-1.26a1.23,1.23,0,0,0-.9.38,1.55,1.55,0,0,0-.37,1.14v2.91h-1.51v-5.51h1.36l0,1a1.87,1.87,0,0,1,.76-.81,2.2,2.2,0,0,1,1.13-.28A2,2,0,0,1,226.91,199.27Z"/><path d="M232.75,204a2,2,0,0,1-.67.33,3,3,0,0,1-.85.12c-1.22,0-1.84-.55-1.84-1.66V200h-1v-1.12h1v-1.27l1.51-.42v1.69h1.79V200H230.9v2.6a.68.68,0,0,0,.76.76,1.29,1.29,0,0,0,.85-.31Z"/><path d="M238.31,199.51a3.36,3.36,0,0,1,0,4.21,3.23,3.23,0,0,1-4.16,0,3.36,3.36,0,0,1,0-4.21,3.23,3.23,0,0,1,4.16,0Zm-3.06.8a2.16,2.16,0,0,0-.33,1.31,2.13,2.13,0,0,0,.33,1.3,1.31,1.31,0,0,0,2,0,2.13,2.13,0,0,0,.33-1.3,2.16,2.16,0,0,0-.33-1.31,1.31,1.31,0,0,0-2,0Z"/><path d="M35,360.25a5.31,5.31,0,0,1-1.38-3.92v-6.49H36.3v6.39c0,2.07.86,3.11,2.58,3.11a2.41,2.41,0,0,0,1.92-.76,3.49,3.49,0,0,0,.66-2.35v-6.39H44.1v6.49a5.47,5.47,0,0,1-9.1,3.92Z" fill="#00a09d"/><path d="M47.4,361.28a5.48,5.48,0,0,1-1.69-.69l.86-1.85a5.3,5.3,0,0,0,1.44.62,6,6,0,0,0,1.65.24c1.09,0,1.64-.27,1.64-.81a.57.57,0,0,0-.45-.54,5.93,5.93,0,0,0-1.37-.29,12,12,0,0,1-1.8-.38,2.64,2.64,0,0,1-1.23-.76,2.14,2.14,0,0,1-.53-1.55,2.49,2.49,0,0,1,.49-1.5,3.28,3.28,0,0,1,1.42-1,6.17,6.17,0,0,1,2.21-.36,8.53,8.53,0,0,1,1.88.21,4.92,4.92,0,0,1,1.55.57L52.61,355a5.18,5.18,0,0,0-2.57-.66,2.68,2.68,0,0,0-1.24.23.7.7,0,0,0-.41.6.6.6,0,0,0,.45.58,7.89,7.89,0,0,0,1.42.31,14.17,14.17,0,0,1,1.78.39,2.69,2.69,0,0,1,1.21.75,2.15,2.15,0,0,1,.51,1.52,2.35,2.35,0,0,1-.49,1.48,3.16,3.16,0,0,1-1.45,1,6.62,6.62,0,0,1-2.26.35A8.64,8.64,0,0,1,47.4,361.28Z" fill="#00a09d"/><path d="M64,357.7H57.29a2.11,2.11,0,0,0,.86,1.31,2.84,2.84,0,0,0,1.69.48,3.37,3.37,0,0,0,1.23-.21,3.13,3.13,0,0,0,1-.65l1.37,1.48a4.61,4.61,0,0,1-3.67,1.44,5.82,5.82,0,0,1-2.66-.58,4.36,4.36,0,0,1-1.79-1.63,4.52,4.52,0,0,1-.63-2.37,4.59,4.59,0,0,1,.62-2.36A4.26,4.26,0,0,1,57,353a5.26,5.26,0,0,1,4.78,0,4.17,4.17,0,0,1,1.67,1.61,4.85,4.85,0,0,1,.6,2.44S64.05,357.27,64,357.7Zm-6-2.86a2.09,2.09,0,0,0-.72,1.35h4.38a2.1,2.1,0,0,0-.73-1.34,2.16,2.16,0,0,0-1.45-.51A2.25,2.25,0,0,0,58,354.84Z" fill="#00a09d"/><path d="M69.5,352.72a4.69,4.69,0,0,1,1.82-.33v2.38l-.58,0a2.39,2.39,0,0,0-1.74.62,2.49,2.49,0,0,0-.63,1.86v4.2H65.79v-8.9h2.47v1.18A2.82,2.82,0,0,1,69.5,352.72Z" fill="#00a09d"/><path d="M72.44,355.73h4.68v2.07H72.44Z" fill="#00a09d"/><path d="M82,352v3.06h5.36v2.15H82v4.22H79.34V349.84h8.75V352Z" fill="#00a09d"/><path d="M93.28,352.72a4.6,4.6,0,0,1,1.81-.33v2.38l-.58,0a2.39,2.39,0,0,0-1.74.62,2.49,2.49,0,0,0-.63,1.86v4.2H89.56v-8.9H92v1.18A2.79,2.79,0,0,1,93.28,352.72Z" fill="#00a09d"/><path d="M96.76,350.87a1.35,1.35,0,0,1-.45-1,1.31,1.31,0,0,1,.45-1,1.83,1.83,0,0,1,2.31,0,1.27,1.27,0,0,1,.45,1,1.4,1.4,0,0,1-.45,1.07,1.6,1.6,0,0,1-1.15.42A1.66,1.66,0,0,1,96.76,350.87Zm-.14,1.65h2.59v8.9H96.62Z" fill="#00a09d"/><path d="M110.27,357.7h-6.73a2.11,2.11,0,0,0,.86,1.31,2.84,2.84,0,0,0,1.69.48,3.37,3.37,0,0,0,1.23-.21,3.13,3.13,0,0,0,1-.65l1.37,1.48a4.61,4.61,0,0,1-3.67,1.44,5.82,5.82,0,0,1-2.66-.58,4.42,4.42,0,0,1-1.79-1.63,4.52,4.52,0,0,1-.63-2.37,4.59,4.59,0,0,1,.62-2.36,4.33,4.33,0,0,1,1.71-1.63,5.28,5.28,0,0,1,4.79,0,4.15,4.15,0,0,1,1.66,1.61,4.85,4.85,0,0,1,.6,2.44S110.31,357.27,110.27,357.7Zm-6-2.86a2.09,2.09,0,0,0-.72,1.35h4.38a2.1,2.1,0,0,0-.73-1.34,2.14,2.14,0,0,0-1.45-.51A2.25,2.25,0,0,0,104.23,354.84Z" fill="#00a09d"/><path d="M120.12,353.38a3.93,3.93,0,0,1,1,2.95v5.09h-2.58v-4.7a2.38,2.38,0,0,0-.46-1.58,1.73,1.73,0,0,0-1.34-.52,2,2,0,0,0-1.56.61,2.52,2.52,0,0,0-.58,1.79v4.4H112v-8.9h2.47v1a3.36,3.36,0,0,1,1.27-.86,4.32,4.32,0,0,1,1.67-.31A3.67,3.67,0,0,1,120.12,353.38Z" fill="#00a09d"/><path d="M132.64,349.15v12.27h-2.47v-1a3.4,3.4,0,0,1-2.78,1.15,4.55,4.55,0,0,1-2.27-.56,4,4,0,0,1-1.6-1.6,5.32,5.32,0,0,1,0-4.83,4.06,4.06,0,0,1,1.6-1.61,4.66,4.66,0,0,1,2.27-.56,3.41,3.41,0,0,1,2.67,1.07v-4.31Zm-3.18,9.62a2.5,2.5,0,0,0,.65-1.8,2.46,2.46,0,0,0-.65-1.79,2.14,2.14,0,0,0-1.62-.67,2.17,2.17,0,0,0-1.64.67,2.45,2.45,0,0,0-.64,1.79,2.49,2.49,0,0,0,.64,1.8,2.21,2.21,0,0,0,1.64.67A2.18,2.18,0,0,0,129.46,358.77Z" fill="#00a09d"/><path d="M135,349.15h2.58v12.27H135Z" fill="#00a09d"/><path d="M148.83,352.52l-4,9.45a4.68,4.68,0,0,1-1.51,2.16,3.71,3.71,0,0,1-2.18.63,4.6,4.6,0,0,1-1.37-.21,3.09,3.09,0,0,1-1.11-.6l.94-1.83a2.38,2.38,0,0,0,.69.41,2.15,2.15,0,0,0,.77.15,1.38,1.38,0,0,0,.86-.26,2.18,2.18,0,0,0,.6-.85l0-.08-3.86-9h2.67l2.5,6,2.51-6Z" fill="#00a09d"/><path d="M10.26,323a2.91,2.91,0,0,1,1.81-.56,2.69,2.69,0,0,1,2.34,1.19,6,6,0,0,1,.82,3.44v6H3.65v-5.66a5.55,5.55,0,0,1,.81-3.25A2.57,2.57,0,0,1,6.66,323a2.8,2.8,0,0,1,2.55,1.54A3.1,3.1,0,0,1,10.26,323Zm-4.59,7.4H8.4v-2.66a2.69,2.69,0,0,0-.35-1.51,1.16,1.16,0,0,0-1-.51,1.12,1.12,0,0,0-1,.51,2.7,2.7,0,0,0-.34,1.51Zm7.19-4.72a1.18,1.18,0,0,0-1.07-.54q-1.44,0-1.44,2.13v3.13h2.86v-3.13A3,3,0,0,0,12.86,325.69Z" fill="#00a09d"/><path d="M6.33,311.63h8.9v2.45H14.17a3.28,3.28,0,0,1,.88,1.23,3.7,3.7,0,0,1,.31,1.53,3.8,3.8,0,0,1-1,2.78,4,4,0,0,1-3,1h-5v-2.58H11c1.43,0,2.15-.6,2.15-1.8a1.91,1.91,0,0,0-.61-1.49,2.51,2.51,0,0,0-1.79-.57H6.33Z" fill="#00a09d"/><path d="M15.09,308.41a5.59,5.59,0,0,1-.69,1.69l-1.85-.86a5.63,5.63,0,0,0,.62-1.44,6.11,6.11,0,0,0,.24-1.66c0-1.09-.27-1.64-.81-1.64a.57.57,0,0,0-.55.45,7,7,0,0,0-.28,1.37,14,14,0,0,1-.38,1.81,2.83,2.83,0,0,1-.76,1.23,2.15,2.15,0,0,1-1.56.52,2.38,2.38,0,0,1-1.49-.49,3.07,3.07,0,0,1-1-1.42,6.13,6.13,0,0,1-.36-2.21,9.24,9.24,0,0,1,.2-1.88A5.39,5.39,0,0,1,7,302.34l1.84.86a5.11,5.11,0,0,0-.66,2.56A2.65,2.65,0,0,0,8.38,307a.67.67,0,0,0,.6.42.59.59,0,0,0,.57-.45,7.91,7.91,0,0,0,.32-1.42,14.38,14.38,0,0,1,.39-1.79,2.75,2.75,0,0,1,.75-1.21,2.13,2.13,0,0,1,1.52-.51,2.3,2.3,0,0,1,1.47.5A3.2,3.2,0,0,1,15,304a6.66,6.66,0,0,1,.35,2.26A8.78,8.78,0,0,1,15.09,308.41Z" fill="#00a09d"/><path d="M4.67,300.32a1.31,1.31,0,0,1-1,.45,1.35,1.35,0,0,1-1-.45,1.86,1.86,0,0,1,0-2.32,1.28,1.28,0,0,1,1-.44,1.45,1.45,0,0,1,1.07.44,1.64,1.64,0,0,1,.42,1.16A1.62,1.62,0,0,1,4.67,300.32Zm1.66.13v-2.58h8.9v2.58Z" fill="#00a09d"/><path d="M7.19,287.39a3.92,3.92,0,0,1,2.94-1h5.1V289h-4.7a2.31,2.31,0,0,0-1.58.47,1.68,1.68,0,0,0-.52,1.34,2,2,0,0,0,.6,1.55,2.5,2.5,0,0,0,1.8.58h4.4v2.58H6.33V293h1a3.54,3.54,0,0,1-.87-1.28,4.47,4.47,0,0,1-.3-1.67A3.67,3.67,0,0,1,7.19,287.39Z" fill="#00a09d"/><path d="M11.51,275.27V282a2.09,2.09,0,0,0,1.3-.86,2.86,2.86,0,0,0,.48-1.69,3.6,3.6,0,0,0-.2-1.23,3,3,0,0,0-.66-1l1.49-1.38a4.63,4.63,0,0,1,1.44,3.68,5.82,5.82,0,0,1-.59,2.66A4.29,4.29,0,0,1,13.14,284a4.45,4.45,0,0,1-2.36.62A4.5,4.5,0,0,1,8.42,284a4.39,4.39,0,0,1-1.64-1.7,5,5,0,0,1-.58-2.42,4.94,4.94,0,0,1,.56-2.37,4.08,4.08,0,0,1,1.61-1.66,4.85,4.85,0,0,1,2.44-.6Zm-2.87,6A2.15,2.15,0,0,0,10,282v-4.38a2.19,2.19,0,0,0-1.35.72,2.23,2.23,0,0,0-.5,1.46A2.19,2.19,0,0,0,8.64,281.31Z" fill="#00a09d"/><path d="M15.09,272.68a5.59,5.59,0,0,1-.69,1.69l-1.85-.86a5.63,5.63,0,0,0,.62-1.44,6.11,6.11,0,0,0,.24-1.66c0-1.09-.27-1.64-.81-1.64a.57.57,0,0,0-.55.45,7,7,0,0,0-.28,1.37,14,14,0,0,1-.38,1.81,2.83,2.83,0,0,1-.76,1.23,2.15,2.15,0,0,1-1.56.52,2.38,2.38,0,0,1-1.49-.49,3.07,3.07,0,0,1-1-1.42A6.13,6.13,0,0,1,6.2,270a9.24,9.24,0,0,1,.2-1.88A5.39,5.39,0,0,1,7,266.61l1.84.86A5.11,5.11,0,0,0,8.15,270a2.65,2.65,0,0,0,.23,1.24.67.67,0,0,0,.6.42.59.59,0,0,0,.57-.45,7.91,7.91,0,0,0,.32-1.42,14.38,14.38,0,0,1,.39-1.79,2.75,2.75,0,0,1,.75-1.21,2.13,2.13,0,0,1,1.52-.51,2.3,2.3,0,0,1,1.47.5,3.2,3.2,0,0,1,1,1.44,6.66,6.66,0,0,1,.35,2.26A8.78,8.78,0,0,1,15.09,272.68Z" fill="#00a09d"/><path d="M15.09,263.89a5.48,5.48,0,0,1-.69,1.69l-1.85-.86a5.63,5.63,0,0,0,.62-1.44,6,6,0,0,0,.24-1.65c0-1.09-.27-1.64-.81-1.64a.57.57,0,0,0-.55.45,6.65,6.65,0,0,0-.28,1.37,13.46,13.46,0,0,1-.38,1.8,2.81,2.81,0,0,1-.76,1.24,2.19,2.19,0,0,1-1.56.52,2.44,2.44,0,0,1-1.49-.49,3.13,3.13,0,0,1-1-1.42,6.17,6.17,0,0,1-.36-2.21,9.17,9.17,0,0,1,.2-1.88A5.47,5.47,0,0,1,7,257.82l1.84.86a5.18,5.18,0,0,0-.66,2.57,2.68,2.68,0,0,0,.23,1.24.68.68,0,0,0,.6.41.59.59,0,0,0,.57-.44A8.07,8.07,0,0,0,9.87,261a14.17,14.17,0,0,1,.39-1.78A2.69,2.69,0,0,1,11,258a2.13,2.13,0,0,1,1.52-.51A2.35,2.35,0,0,1,14,258a3.23,3.23,0,0,1,1,1.45,6.62,6.62,0,0,1,.35,2.26A8.64,8.64,0,0,1,15.09,263.89Z" fill="#00a09d"/><path d="M15.05,249.92a6.08,6.08,0,0,1-1,2.06l-2-.91A6.1,6.1,0,0,0,13,249.3a6.61,6.61,0,0,0,.33-2.05,3.3,3.3,0,0,0-.34-1.68A1,1,0,0,0,12,245a.87.87,0,0,0-.69.32,2.51,2.51,0,0,0-.44.83c-.11.34-.23.79-.36,1.36a18.31,18.31,0,0,1-.63,2.17,3.56,3.56,0,0,1-1,1.45,2.73,2.73,0,0,1-1.85.6,3.22,3.22,0,0,1-1.83-.54,3.71,3.71,0,0,1-1.3-1.65,6.71,6.71,0,0,1-.48-2.69,8.64,8.64,0,0,1,.27-2.16,6.26,6.26,0,0,1,.76-1.86l2,.83a6.42,6.42,0,0,0-.91,3.21A3,3,0,0,0,6,248.55a1.13,1.13,0,0,0,1,.54.94.94,0,0,0,.89-.62,10.23,10.23,0,0,0,.57-1.89A18.31,18.31,0,0,1,9,244.41,3.62,3.62,0,0,1,10,243a2.68,2.68,0,0,1,1.84-.6,3.16,3.16,0,0,1,1.81.55,3.76,3.76,0,0,1,1.3,1.66,6.79,6.79,0,0,1,.48,2.7A9.33,9.33,0,0,1,15.05,249.92Z" fill="#00a09d"/><path d="M14.77,239a4.34,4.34,0,0,1-4,2.4,4.52,4.52,0,0,1-2.37-.63A4.57,4.57,0,0,1,6.78,239a5.51,5.51,0,0,1-.58-2.56A4.93,4.93,0,0,1,6.78,234a3.51,3.51,0,0,1,1.68-1.53l1.08,2a2.18,2.18,0,0,0-1.23,2A2.24,2.24,0,0,0,9,238.09a2.43,2.43,0,0,0,1.8.66,2.43,2.43,0,0,0,1.8-.66,2.27,2.27,0,0,0,.66-1.67,2.15,2.15,0,0,0-1.22-2l1.09-2A3.56,3.56,0,0,1,14.77,234a4.94,4.94,0,0,1,.59,2.45A5.52,5.52,0,0,1,14.77,239Z" fill="#00a09d"/><path d="M14.77,229.33a4.37,4.37,0,0,1-1.63,1.75,4.54,4.54,0,0,1-2.36.62,4.6,4.6,0,0,1-2.37-.62,4.51,4.51,0,0,1-1.63-1.75,5.76,5.76,0,0,1,0-5,4.45,4.45,0,0,1,1.63-1.73,4.52,4.52,0,0,1,2.37-.63,4.46,4.46,0,0,1,2.36.63,4.31,4.31,0,0,1,1.63,1.73,5.68,5.68,0,0,1,0,5Zm-2.2-4.15a2.45,2.45,0,0,0-1.79-.64,2.49,2.49,0,0,0-1.8.64,2.17,2.17,0,0,0-.67,1.63A2.21,2.21,0,0,0,9,228.45a2.49,2.49,0,0,0,1.8.64,2.45,2.45,0,0,0,1.79-.64,2.17,2.17,0,0,0,.67-1.64A2.13,2.13,0,0,0,12.57,225.18Z" fill="#00a09d"/><path d="M6.77,212.69a4.1,4.1,0,0,1,1.6-1.6,4.91,4.91,0,0,1,2.41-.58,4.94,4.94,0,0,1,2.41.58,4.17,4.17,0,0,1,1.6,1.6,4.54,4.54,0,0,1,.57,2.26,3.47,3.47,0,0,1-1.07,2.68h4.15v2.58H6.33v-2.47h1A3.42,3.42,0,0,1,6.2,215,4.54,4.54,0,0,1,6.77,212.69Zm5.8,1.07a2.49,2.49,0,0,0-1.79-.63,2.53,2.53,0,0,0-1.8.63,2.19,2.19,0,0,0-.67,1.63A2.15,2.15,0,0,0,9,217a2.49,2.49,0,0,0,1.8.64,2.45,2.45,0,0,0,1.79-.64,2.12,2.12,0,0,0,.67-1.63A2.15,2.15,0,0,0,12.57,213.76Z" fill="#00a09d"/><path d="M11.51,200.13v6.73a2.09,2.09,0,0,0,1.3-.86,2.86,2.86,0,0,0,.48-1.69,3.6,3.6,0,0,0-.2-1.23,3,3,0,0,0-.66-1l1.49-1.38a4.63,4.63,0,0,1,1.44,3.68,5.82,5.82,0,0,1-.59,2.66,4.29,4.29,0,0,1-1.63,1.79,4.46,4.46,0,0,1-2.36.63,4.51,4.51,0,0,1-2.36-.63,4.39,4.39,0,0,1-1.64-1.7,5,5,0,0,1-.58-2.42,4.94,4.94,0,0,1,.56-2.37,4.08,4.08,0,0,1,1.61-1.66,4.85,4.85,0,0,1,2.44-.6Zm-2.87,6a2.15,2.15,0,0,0,1.36.73v-4.38a2.15,2.15,0,0,0-1.35.73,2.4,2.4,0,0,0,0,2.92Z" fill="#00a09d"/><path d="M290.87,199.3v7.28h-1.52v-3.06h-3.21v3.06h-1.52V199.3h1.52v3h3.21v-3Z"/><path d="M297.82,201.07v5.51h-1.35l-.05-1a2,2,0,0,1-1.93,1.06,2,2,0,0,1-1.42-.48,1.93,1.93,0,0,1-.52-1.49v-3.65h1.51v3.26a1.36,1.36,0,0,0,.24.91,1,1,0,0,0,.72.26,1.23,1.23,0,0,0,.93-.37,1.51,1.51,0,0,0,.36-1.11v-3Z"/><path d="M304.38,201.72a3.85,3.85,0,0,1,0,4.22,2.14,2.14,0,0,1-1.73.75,1.93,1.93,0,0,1-1.85-1.2l-.06,1.09h-1.33v-7.93h1.51V202a1.87,1.87,0,0,1,1.73-1A2.12,2.12,0,0,1,304.38,201.72Zm-1.22,3.37a2.52,2.52,0,0,0,0-2.53,1.26,1.26,0,0,0-1.86-.06,1.81,1.81,0,0,0-.38,1.08v.49a1.76,1.76,0,0,0,.38,1.08,1.26,1.26,0,0,0,1.86-.06Z"/><path d="M305.92,205.63l.89-.9a1.26,1.26,0,0,0,.63.67,2.41,2.41,0,0,0,1,.19,1.71,1.71,0,0,0,.75-.13.4.4,0,0,0,.26-.37.39.39,0,0,0-.24-.32,3.86,3.86,0,0,0-.86-.25,4.25,4.25,0,0,1-1.78-.67,1.36,1.36,0,0,1-.51-1.12,1.48,1.48,0,0,1,.28-.87,2,2,0,0,1,.85-.65,3.29,3.29,0,0,1,1.35-.25,3.37,3.37,0,0,1,1.5.28,2.39,2.39,0,0,1,1,.89l-.94.79a1.65,1.65,0,0,0-.6-.65,1.76,1.76,0,0,0-.9-.21,1.37,1.37,0,0,0-.72.16.43.43,0,0,0-.27.37.47.47,0,0,0,.26.39,3.58,3.58,0,0,0,.94.28,4.18,4.18,0,0,1,1.7.64A1.28,1.28,0,0,1,311,205a1.44,1.44,0,0,1-.66,1.24,3.12,3.12,0,0,1-1.86.47A2.86,2.86,0,0,1,305.92,205.63Z"/><path d="M317.17,201.71a3.85,3.85,0,0,1,0,4.22,2.11,2.11,0,0,1-1.73.76,1.87,1.87,0,0,1-1.73-1v3.22H312.2v-7.83h1.33l.06,1.09a1.93,1.93,0,0,1,1.85-1.2A2.13,2.13,0,0,1,317.17,201.71ZM316,205.09a2.52,2.52,0,0,0,0-2.53,1.13,1.13,0,0,0-1-.44,1.1,1.1,0,0,0-.89.38,1.71,1.71,0,0,0-.39,1.08v.49a1.75,1.75,0,0,0,.39,1.08,1.1,1.1,0,0,0,.89.38A1.13,1.13,0,0,0,316,205.09Z"/><path d="M323.75,201.72a3.36,3.36,0,0,1,0,4.21,3.23,3.23,0,0,1-4.16,0,3.36,3.36,0,0,1,0-4.21,3.23,3.23,0,0,1,4.16,0Zm-3.05.8a2.67,2.67,0,0,0,0,2.61,1.15,1.15,0,0,0,1,.44,1.17,1.17,0,0,0,1-.44,2.75,2.75,0,0,0,0-2.61,1.17,1.17,0,0,0-1-.44A1.15,1.15,0,0,0,320.7,202.52Z"/><path d="M329.51,206.24a1.94,1.94,0,0,1-.66.33,3,3,0,0,1-.85.12c-1.23,0-1.84-.55-1.84-1.66v-2.84h-1v-1.12h1V199.8l1.51-.42v1.69h1.79v1.12h-1.79v2.59a.68.68,0,0,0,.76.77,1.29,1.29,0,0,0,.85-.31Z"/><path d="M352.05,190.45a3.45,3.45,0,0,1,1.28,1.06l-1.05,1a2,2,0,0,0-.76-.89,2.22,2.22,0,0,0-1.2-.29,1.75,1.75,0,0,0-1,.25.75.75,0,0,0-.36.65.68.68,0,0,0,.36.6,4.36,4.36,0,0,0,1.31.38,6.54,6.54,0,0,1,1.58.47,2,2,0,0,1,.86.69,1.84,1.84,0,0,1,.27,1,1.86,1.86,0,0,1-.38,1.16,2.48,2.48,0,0,1-1.06.76,4.42,4.42,0,0,1-1.55.26,4.84,4.84,0,0,1-2-.34,2.81,2.81,0,0,1-1.24-1l.9-1.08a2.32,2.32,0,0,0,.94.93,2.86,2.86,0,0,0,1.31.26,2.12,2.12,0,0,0,1.08-.22.69.69,0,0,0,.37-.63.58.58,0,0,0-.35-.49,4.71,4.71,0,0,0-1.24-.38,7.73,7.73,0,0,1-1.64-.49,2.11,2.11,0,0,1-.89-.71,1.87,1.87,0,0,1-.27-1,2.09,2.09,0,0,1,.35-1.17,2.37,2.37,0,0,1,1-.82,3.9,3.9,0,0,1,1.6-.3A4.06,4.06,0,0,1,352.05,190.45Z"/><path d="M359.31,192.39a2,2,0,0,1,.55,1.49v3.62h-1.52v-3.18c0-.83-.32-1.25-1-1.25a1.22,1.22,0,0,0-.9.37,1.6,1.6,0,0,0-.36,1.15v2.91h-1.52v-7.93h1.52v3.35a1.71,1.71,0,0,1,.71-.79,2.13,2.13,0,0,1,1.06-.25A2,2,0,0,1,359.31,192.39Z"/><path d="M366,192.64a3.36,3.36,0,0,1,0,4.21,3.23,3.23,0,0,1-4.16,0,3.33,3.33,0,0,1,0-4.21,3.23,3.23,0,0,1,4.16,0Zm-3.06.8a2.13,2.13,0,0,0-.34,1.3,2.16,2.16,0,0,0,.34,1.31,1.17,1.17,0,0,0,1,.44,1.15,1.15,0,0,0,1-.44,2.09,2.09,0,0,0,.34-1.31,2.06,2.06,0,0,0-.34-1.3,1.15,1.15,0,0,0-1-.44A1.17,1.17,0,0,0,363,193.44Z"/><path d="M373.05,192.63a3.23,3.23,0,0,1,.62,2.1,3.28,3.28,0,0,1-.62,2.12,2.13,2.13,0,0,1-1.74.76,1.9,1.9,0,0,1-1.73-1v3.22h-1.51V192h1.34l0,1.09a2,2,0,0,1,.72-.88,2,2,0,0,1,1.13-.32A2.15,2.15,0,0,1,373.05,192.63ZM371.82,196a2.54,2.54,0,0,0,0-2.54,1.16,1.16,0,0,0-1-.44,1.15,1.15,0,0,0-.89.38,1.76,1.76,0,0,0-.39,1.09V195a1.75,1.75,0,0,0,.39,1.08,1.15,1.15,0,0,0,.89.38A1.13,1.13,0,0,0,371.82,196Z"/><path d="M374.83,190.39c0-.55.31-.82.94-.82s.94.27.94.82-.32.8-.94.8S374.83,190.92,374.83,190.39Zm1.69,7.11H375V192h1.51Z"/><path d="M380,192h1.74v1.12H380v4.39h-1.52v-4.39h-.95V192h.95v-.67a1.7,1.7,0,0,1,.57-1.38,2.25,2.25,0,0,1,1.52-.48,2.86,2.86,0,0,1,.67.08,1.34,1.34,0,0,1,.48.21l-.21,1a1.14,1.14,0,0,0-.63-.16c-.63,0-1,.28-1,.84Z"/><path d="M385.66,197.84a3.75,3.75,0,0,1-.94,1.58,2.15,2.15,0,0,1-1.43.45,2.08,2.08,0,0,1-1.4-.43l.37-1.07a1,1,0,0,0,.4.27,1.62,1.62,0,0,0,.53.07,1,1,0,0,0,.55-.14,1.06,1.06,0,0,0,.35-.52l.2-.47-.6-1.44L382,192h1.68l1,3.3.3,1.11.33-1.17,1-3.24h1.53Z"/><path d="M296.53,264.48a1.32,1.32,0,0,0,.56-.31l.4,1.17a2.08,2.08,0,0,1-.76.38,3.4,3.4,0,0,1-1,.14,2.39,2.39,0,0,1-1.66-.54,2,2,0,0,1-.57-1.6,3.16,3.16,0,0,1-2.18-1.14,4,4,0,0,1-.78-2.57,4.35,4.35,0,0,1,.43-2,3,3,0,0,1,1.22-1.29,4.07,4.07,0,0,1,3.72,0A3,3,0,0,1,297.1,258a4.48,4.48,0,0,1,.42,2,4,4,0,0,1-.79,2.58,3.13,3.13,0,0,1-2.19,1.13.84.84,0,0,0,.36.69,1.72,1.72,0,0,0,.86.18A2.31,2.31,0,0,0,296.53,264.48Zm-3.93-2.62a1.89,1.89,0,0,0,2.85,0,3.69,3.69,0,0,0,0-3.71,1.89,1.89,0,0,0-2.85,0,3.69,3.69,0,0,0,0,3.71Z"/><path d="M304.14,258.13v5.52H302.8l-.06-.95a2,2,0,0,1-1.93,1.06,2,2,0,0,1-1.42-.48,1.94,1.94,0,0,1-.52-1.5v-3.65h1.51v3.27a1.35,1.35,0,0,0,.24.9.92.92,0,0,0,.72.26,1.23,1.23,0,0,0,.93-.37,1.5,1.5,0,0,0,.36-1.1v-3Z"/><path d="M305.55,256.53c0-.54.32-.81.94-.81s.94.27.94.81-.31.81-.94.81S305.55,257.07,305.55,256.53Zm1.69,7.12h-1.51v-5.52h1.51Z"/><path d="M313.06,258.46a2.22,2.22,0,0,1,.83,1.18l-1.41.51c-.13-.67-.49-1-1.07-1a1.17,1.17,0,0,0-1,.44,2.13,2.13,0,0,0-.35,1.31,2,2,0,0,0,.36,1.29,1.16,1.16,0,0,0,1,.44,1.06,1.06,0,0,0,1.14-1l1.37.44a2,2,0,0,1-.82,1.21,3,3,0,0,1-3.79-4.52,2.72,2.72,0,0,1,2.06-.76A2.87,2.87,0,0,1,313.06,258.46Z"/><path d="M317.63,261.21l-1,1.07v1.37h-1.51v-7.93h1.51v4.93l2.4-2.52h1.71l-2.08,2.16,2.21,3.36h-1.71Z"/><path d="M326.73,258.78a3.23,3.23,0,0,1,.62,2.12,3.17,3.17,0,0,1-.62,2.1,2.16,2.16,0,0,1-1.74.76,2,2,0,0,1-1.13-.33,2,2,0,0,1-.72-.88l-.05,1.1h-1.34v-7.93h1.51V259a1.88,1.88,0,0,1,.7-.75,1.93,1.93,0,0,1,1-.27A2.13,2.13,0,0,1,326.73,258.78Zm-1.23,3.38a2.54,2.54,0,0,0,0-2.54,1.25,1.25,0,0,0-1.85-.06,1.76,1.76,0,0,0-.39,1.09v.48a1.76,1.76,0,0,0,.39,1.09,1.25,1.25,0,0,0,1.85-.06Z"/><path d="M333.3,258.78a2.88,2.88,0,0,1,.75,2.11,2.84,2.84,0,0,1-.75,2.1,3.18,3.18,0,0,1-4.15,0,2.84,2.84,0,0,1-.75-2.1,2.88,2.88,0,0,1,.75-2.11,3.21,3.21,0,0,1,4.15,0Zm-3.05.8a2.16,2.16,0,0,0-.34,1.31,2.13,2.13,0,0,0,.34,1.3,1.3,1.3,0,0,0,1.95,0,2.06,2.06,0,0,0,.34-1.3,2.09,2.09,0,0,0-.34-1.31,1.32,1.32,0,0,0-1.95,0Z"/><path d="M340,258.78a2.92,2.92,0,0,1,.74,2.11A2.88,2.88,0,0,1,340,263a3.19,3.19,0,0,1-4.16,0,2.84,2.84,0,0,1-.75-2.1,2.88,2.88,0,0,1,.75-2.11,3.23,3.23,0,0,1,4.16,0Zm-3.06.8a2.16,2.16,0,0,0-.34,1.31,2.13,2.13,0,0,0,.34,1.3,1.3,1.3,0,0,0,1.95,0,2.06,2.06,0,0,0,.34-1.3,2.09,2.09,0,0,0-.34-1.31,1.32,1.32,0,0,0-1.95,0Z"/><path d="M344.53,261.21l-1,1.07v1.37H342v-7.93h1.51v4.93l2.39-2.52h1.71l-2.07,2.16,2.21,3.36h-1.71Z"/><path d="M348.15,262.7l.89-.91a1.26,1.26,0,0,0,.63.67,2.41,2.41,0,0,0,1,.19,1.71,1.71,0,0,0,.75-.13.39.39,0,0,0,.26-.36.36.36,0,0,0-.24-.32,3.3,3.3,0,0,0-.86-.26,4.41,4.41,0,0,1-1.78-.66,1.37,1.37,0,0,1-.51-1.12,1.48,1.48,0,0,1,.28-.87,2,2,0,0,1,.85-.66,3.29,3.29,0,0,1,1.35-.25,3.37,3.37,0,0,1,1.5.28,2.47,2.47,0,0,1,1,.89l-.94.79a1.65,1.65,0,0,0-.6-.65,1.76,1.76,0,0,0-.9-.21,1.48,1.48,0,0,0-.72.16.44.44,0,0,0-.27.37.45.45,0,0,0,.26.39,3.5,3.5,0,0,0,.94.29,4.19,4.19,0,0,1,1.7.63,1.29,1.29,0,0,1,.51,1.09,1.47,1.47,0,0,1-.66,1.24,3.19,3.19,0,0,1-1.86.47A2.88,2.88,0,0,1,348.15,262.7Z"/><path d="M368.7,282.29h-1.37v-3.8l.07-2.12h0l-2,5.92h-1.25l-2-5.92h0l.08,2.12v3.8h-1.38V275H363l1.31,4,.46,1.64h0l.48-1.63,1.3-4h2.14Z"/><path d="M375.81,281.33l-.11.91a1.47,1.47,0,0,1-.72.16,1.13,1.13,0,0,1-1.26-.83,1.6,1.6,0,0,1-.75.62,3.16,3.16,0,0,1-1.21.21,1.9,1.9,0,0,1-1.25-.37,1.26,1.26,0,0,1-.45-1c0-.9.71-1.48,2.15-1.75l1.32-.25v-.26a.94.94,0,0,0-.25-.7.87.87,0,0,0-.69-.26,1.43,1.43,0,0,0-.83.22,1.14,1.14,0,0,0-.44.71l-1.2-.5a1.81,1.81,0,0,1,.8-1.13,2.87,2.87,0,0,1,1.61-.41,3,3,0,0,1,1.84.52,1.79,1.79,0,0,1,.66,1.51V281a.41.41,0,0,0,.1.32.4.4,0,0,0,.31.1A1.26,1.26,0,0,0,375.81,281.33Zm-2.68-.19a.75.75,0,0,0,.4-.65v-.57l-1.18.26a1.4,1.4,0,0,0-.56.24.51.51,0,0,0-.18.41.52.52,0,0,0,.17.41.7.7,0,0,0,.46.13A1.82,1.82,0,0,0,373.13,281.14Z"/><path d="M376.55,275.18c0-.55.31-.82.94-.82s.94.27.94.82-.32.8-.94.8S376.55,275.71,376.55,275.18Zm1.69,7.11h-1.51v-5.52h1.51Z"/><path d="M381.33,280.53a1,1,0,0,0,.11.56.52.52,0,0,0,.43.15,1.51,1.51,0,0,0,.32,0l.33-.09-.14,1.05a1.43,1.43,0,0,1-.46.17,2.74,2.74,0,0,1-.56.06,1.57,1.57,0,0,1-1.18-.39,1.81,1.81,0,0,1-.37-1.25v-6.4h1.52Z"/><path d="M387.58,277.11a2.19,2.19,0,0,1,.83,1.18l-1.42.5c-.13-.67-.49-1-1.07-1a1.17,1.17,0,0,0-1,.45,2,2,0,0,0-.35,1.3,2.06,2.06,0,0,0,.35,1.3,1.19,1.19,0,0,0,1,.43,1.06,1.06,0,0,0,1.15-1l1.37.44a2,2,0,0,1-.82,1.22,2.86,2.86,0,0,1-1.67.45,2.62,2.62,0,0,1-2.87-2.87,2.9,2.9,0,0,1,.74-2.11,3.3,3.3,0,0,1,3.77-.31Z"/><path d="M394.35,277.18a1.94,1.94,0,0,1,.55,1.49v3.62h-1.51v-3.18c0-.84-.33-1.25-1-1.25a1.22,1.22,0,0,0-.9.37,1.56,1.56,0,0,0-.37,1.15v2.91h-1.51v-7.93h1.51v3.35a1.83,1.83,0,0,1,.71-.79,2.17,2.17,0,0,1,1.07-.26A2,2,0,0,1,394.35,277.18Z"/><path d="M396.28,275.18c0-.55.31-.82.94-.82s.93.27.93.82-.31.8-.93.8S396.28,275.71,396.28,275.18Zm1.69,7.11h-1.51v-5.52H398Z"/><path d="M407.87,277.18a1.91,1.91,0,0,1,.56,1.49v3.62h-1.51V279a1.19,1.19,0,0,0-.25-.84.91.91,0,0,0-.7-.27,1.1,1.1,0,0,0-.87.38,1.57,1.57,0,0,0-.34,1.08v3h-1.51V279a1.24,1.24,0,0,0-.25-.84.93.93,0,0,0-.71-.27,1.13,1.13,0,0,0-.86.38,1.63,1.63,0,0,0-.35,1.13v2.92h-1.51v-5.52h1.35l.05,1a1.87,1.87,0,0,1,.75-.82,2.17,2.17,0,0,1,1.08-.28,2.09,2.09,0,0,1,1.09.29,1.64,1.64,0,0,1,.7.83,1.9,1.9,0,0,1,.78-.83,2.18,2.18,0,0,1,1.1-.29A2,2,0,0,1,407.87,277.18Z"/><path d="M415,277.42a3.17,3.17,0,0,1,.63,2.1,3.25,3.25,0,0,1-.63,2.12,2.12,2.12,0,0,1-1.73.76,2,2,0,0,1-1-.27,1.92,1.92,0,0,1-.69-.75v3.22H410v-7.83h1.33l.06,1.1a2,2,0,0,1,.72-.88,2,2,0,0,1,1.13-.33A2.15,2.15,0,0,1,415,277.42Zm-1.22,3.38a2.54,2.54,0,0,0,0-2.54,1.26,1.26,0,0,0-1.86-.06,1.82,1.82,0,0,0-.38,1.09v.48a1.76,1.76,0,0,0,.38,1.08,1.14,1.14,0,0,0,.9.39A1.16,1.16,0,0,0,413.74,280.8Z"/><path d="M435.14,294.53H432.7v6.06h-1.52v-6.06h-2.45v-1.22h6.41Z"/><path d="M439.22,295.08l-.19,1.33a1.39,1.39,0,0,0-1.63.22,1.51,1.51,0,0,0-.39,1.1v2.86H435.5v-5.52h1.31l.1,1.08a1.69,1.69,0,0,1,1.71-1.19A1.22,1.22,0,0,1,439.22,295.08Z"/><path d="M445.15,298.4h-3.9a1.28,1.28,0,0,0,1.37,1.17,1.68,1.68,0,0,0,.79-.17,1,1,0,0,0,.43-.51l1.23.45a1.94,1.94,0,0,1-.88,1,3.23,3.23,0,0,1-1.57.35,2.81,2.81,0,0,1-2.11-.76,2.85,2.85,0,0,1-.75-2.11,2.9,2.9,0,0,1,.73-2.11,2.71,2.71,0,0,1,2.05-.76,2.58,2.58,0,0,1,2,.74,3,3,0,0,1,.68,2.11A3.81,3.81,0,0,1,445.15,298.4Zm-3.5-2a1.52,1.52,0,0,0-.41,1h2.57a1.61,1.61,0,0,0-.42-1,1.2,1.2,0,0,0-.86-.32A1.18,1.18,0,0,0,441.65,296.4Z"/><path d="M448,298.83a1,1,0,0,0,.12.56.5.5,0,0,0,.42.15,1.55,1.55,0,0,0,.33,0l.32-.09-.13,1.05a1.53,1.53,0,0,1-.46.17,2.76,2.76,0,0,1-.57.06,1.56,1.56,0,0,1-1.17-.39,1.76,1.76,0,0,1-.37-1.25v-6.4H448Z"/><path d="M451.47,298.83a1.07,1.07,0,0,0,.11.56.52.52,0,0,0,.43.15,1.51,1.51,0,0,0,.32,0l.33-.09-.13,1.05a1.5,1.5,0,0,1-.47.17,2.67,2.67,0,0,1-.56.06,1.54,1.54,0,0,1-1.17-.39,1.76,1.76,0,0,1-.37-1.25v-6.4h1.51Z"/><path d="M458.11,295.72a3.34,3.34,0,0,1,0,4.22,3.21,3.21,0,0,1-4.15,0,3.34,3.34,0,0,1,0-4.22,3.21,3.21,0,0,1,4.15,0Zm-3.05.8a2.69,2.69,0,0,0,0,2.62,1.32,1.32,0,0,0,1.95,0,2.69,2.69,0,0,0,0-2.62,1.32,1.32,0,0,0-1.95,0Z"/><path d="M444.24,256.59a3.4,3.4,0,0,1,1.28,1.07l-1,1a2.09,2.09,0,0,0-.76-.89,2.27,2.27,0,0,0-1.2-.29,1.83,1.83,0,0,0-1,.25.76.76,0,0,0-.36.66.65.65,0,0,0,.37.59,4,4,0,0,0,1.31.39,6.63,6.63,0,0,1,1.57.46,2,2,0,0,1,.86.69,1.86,1.86,0,0,1,.27,1,1.89,1.89,0,0,1-.38,1.17,2.48,2.48,0,0,1-1.06.75,4.16,4.16,0,0,1-1.55.27,5,5,0,0,1-2-.34,3,3,0,0,1-1.24-1l.91-1.08a2.3,2.3,0,0,0,.93.93,3,3,0,0,0,1.32.26,2.08,2.08,0,0,0,1.07-.22.7.7,0,0,0,.37-.63.58.58,0,0,0-.35-.5,4.66,4.66,0,0,0-1.24-.37,7.68,7.68,0,0,1-1.64-.5,2.06,2.06,0,0,1-.88-.7,1.82,1.82,0,0,1-.28-1,2.07,2.07,0,0,1,.35-1.17,2.36,2.36,0,0,1,1-.83,4.07,4.07,0,0,1,1.59-.29A4.16,4.16,0,0,1,444.24,256.59Z"/><path d="M448.27,261.89a1,1,0,0,0,.11.55.49.49,0,0,0,.43.16,1.51,1.51,0,0,0,.32,0l.33-.09-.13,1a1.36,1.36,0,0,1-.47.17,2.2,2.2,0,0,1-.56.07,1.49,1.49,0,0,1-1.17-.4,1.75,1.75,0,0,1-.37-1.25v-6.39h1.51Z"/><path d="M455.72,262.69l-.11.91a1.59,1.59,0,0,1-.72.16,1.13,1.13,0,0,1-1.26-.83,1.6,1.6,0,0,1-.75.62,3.16,3.16,0,0,1-1.21.21,2,2,0,0,1-1.25-.37,1.27,1.27,0,0,1-.46-1.05q0-1.33,2.16-1.74l1.32-.25v-.27a1,1,0,0,0-.25-.7.9.9,0,0,0-.69-.26,1.5,1.5,0,0,0-.83.22,1.19,1.19,0,0,0-.44.72l-1.2-.51a1.82,1.82,0,0,1,.8-1.12,2.87,2.87,0,0,1,1.61-.41,3,3,0,0,1,1.84.51,1.82,1.82,0,0,1,.66,1.52v2.26a.42.42,0,0,0,.1.32.4.4,0,0,0,.31.1A1.73,1.73,0,0,0,455.72,262.69Zm-2.68-.2a.73.73,0,0,0,.4-.64v-.58l-1.18.27a1.4,1.4,0,0,0-.56.24.57.57,0,0,0,0,.81.75.75,0,0,0,.47.14A1.72,1.72,0,0,0,453,262.49Z"/><path d="M460.84,258.46a2.27,2.27,0,0,1,.83,1.18l-1.42.51c-.13-.67-.48-1-1.07-1a1.17,1.17,0,0,0-1,.44,2.59,2.59,0,0,0,0,2.6,1.17,1.17,0,0,0,1,.44,1.06,1.06,0,0,0,1.15-1l1.37.44a2,2,0,0,1-.82,1.21,3,3,0,0,1-3.8-4.52,2.76,2.76,0,0,1,2.07-.76A2.89,2.89,0,0,1,460.84,258.46Z"/><path d="M465.4,261.21l-1,1.07v1.37h-1.51v-7.93h1.51v4.93l2.39-2.52h1.71l-2.07,2.16,2.2,3.36h-1.7Z"/><path d="M382.14,37.38a6.8,6.8,0,1,0,6.79,6.8A6.81,6.81,0,0,0,382.14,37.38Zm0,10.87a4.07,4.07,0,1,1,4.06-4.07A4.07,4.07,0,0,1,382.14,48.25Z" fill="#875a7b"/><path d="M410.24,37.43a6.8,6.8,0,1,0,6.79,6.8A6.8,6.8,0,0,0,410.24,37.43Zm0,10.87a4.07,4.07,0,1,1,4.06-4.07A4.07,4.07,0,0,1,410.24,48.3Z" fill="#8f8f8f"/><path d="M424.28,37.38a6.8,6.8,0,1,0,6.8,6.8A6.8,6.8,0,0,0,424.28,37.38Zm0,10.87a4.07,4.07,0,1,1,4.07-4.07A4.07,4.07,0,0,1,424.28,48.25Z" fill="#8f8f8f"/><path d="M401.62,33.54a1.41,1.41,0,0,0-1.44,1.11v4a6.8,6.8,0,1,0,2.8,5.55h0V34.58A1.25,1.25,0,0,0,401.62,33.54Zm-5.43,14.71a4.07,4.07,0,1,1,4.06-4.07A4.07,4.07,0,0,1,396.19,48.25Z" fill="#8f8f8f"/><path d="M473.34,356.5H155.21a.77.77,0,0,1,0-1.53H473.34a.77.77,0,0,1,0,1.53Z" fill="#00a09d"/><path d="M10.07,194a.76.76,0,0,1-.77-.76V9.8a.77.77,0,0,1,1.53,0V193.25A.76.76,0,0,1,10.07,194Z" fill="#00a09d"/><path d="M468.34,361.5a.75.75,0,0,1-.54-.22.77.77,0,0,1,0-1.09l4.46-4.45-4.46-4.46a.77.77,0,0,1,0-1.09.76.76,0,0,1,1.08,0l5,5a.77.77,0,0,1,0,1.09l-5,5A.76.76,0,0,1,468.34,361.5Z" fill="#00a09d"/><path d="M15.07,15.57a.79.79,0,0,1-.54-.22l-4.46-4.46L5.61,15.35a.77.77,0,1,1-1.09-1.09l5-5a.78.78,0,0,1,1.08,0l5,5a.77.77,0,0,1,0,1.09A.81.81,0,0,1,15.07,15.57Z" fill="#00a09d"/><path d="M11.68,342.1a11.68,11.68,0,1,0,11.67,11.68A11.68,11.68,0,0,0,11.68,342.1Zm0,18.67a7,7,0,1,1,7-7A7,7,0,0,1,11.68,360.77Z" fill="#875a7b"/></svg>